<svg width="60" height="60" viewBox="0 0 60 60" fill="none" xmlns="http://www.w3.org/2000/svg">
    <path d="M35 40.0004C35 44.4254 33.075 48.4254 30 51.1504C27.35 53.5504 23.85 55.0004 20 55.0004C11.725 55.0004 5 48.2754 5 40.0004C5 33.1004 9.7 27.2504 16.05 25.5254C17.775 29.8754 21.475 33.2254 26.05 34.4754C27.3 34.8254 28.625 35.0004 30 35.0004C31.375 35.0004 32.7 34.8254 33.95 34.4754C34.625 36.1754 35 38.0504 35 40.0004Z" stroke="#333333" stroke-width="1.5" stroke-linecap="round" stroke-linejoin="round"/>
    <path d="M45 20C45 21.95 44.625 23.825 43.95 25.525C42.225 29.875 38.525 33.225 33.95 34.475C32.7 34.825 31.375 35 30 35C28.625 35 27.3 34.825 26.05 34.475C21.475 33.225 17.775 29.875 16.05 25.525C15.375 23.825 15 21.95 15 20C15 11.725 21.725 5 30 5C38.275 5 45 11.725 45 20Z" stroke="#333333" stroke-width="1.5" stroke-linecap="round" stroke-linejoin="round"/>
    <path d="M55 40.0004C55 48.2754 48.275 55.0004 40 55.0004C36.15 55.0004 32.65 53.5504 30 51.1504C33.075 48.4254 35 44.4254 35 40.0004C35 38.0504 34.625 36.1754 33.95 34.4754C38.525 33.2254 42.225 29.8754 43.95 25.5254C50.3 27.2504 55 33.1004 55 40.0004Z" stroke="#333333" stroke-width="1.5" stroke-linecap="round" stroke-linejoin="round"/>
</svg>
