<svg width="70" height="70" viewBox="0 0 70 70" fill="none" xmlns="http://www.w3.org/2000/svg">
<path d="M28.1406 40.2487L32.8365 43.8946C33.449 44.5071 34.8198 44.7985 35.724 44.7985H41.499C43.3073 44.7985 45.2907 43.4278 45.7573 41.6195L49.4032 30.5652C50.1615 28.436 48.7906 26.6278 46.5156 26.6278H40.449C39.5448 26.6278 38.7865 25.8694 38.9323 24.8194L39.6906 19.9777C39.9823 18.6068 39.0781 17.0901 37.7073 16.6526C36.4823 16.186 34.9656 16.7984 34.3823 17.7026L28.1698 26.9485" stroke="#333333" stroke-width="1.5" stroke-miterlimit="10"/>
<path d="M20.416 40.2492V25.4031C20.416 23.2739 21.3202 22.5156 23.4493 22.5156H24.966C27.0952 22.5156 27.9994 23.2739 27.9994 25.4031V40.2492C27.9994 42.3784 27.0952 43.1367 24.966 43.1367H23.4493C21.3202 43.1367 20.416 42.3784 20.416 40.2492Z" stroke="#333333" stroke-width="1.5" stroke-linecap="round" stroke-linejoin="round"/>
<path d="M52.5 55.0071H50.2834C47.95 55.0071 45.7333 55.9112 44.1 57.5446L39.1125 62.4739C36.8375 64.7198 33.1333 64.7198 30.8583 62.4739L25.8708 57.5446C24.2375 55.9112 21.9917 55.0071 19.6875 55.0071H17.5C12.6583 55.0071 8.75 51.128 8.75 46.3447V14.5237C8.75 9.74041 12.6583 5.86133 17.5 5.86133H52.5C57.3417 5.86133 61.25 9.74041 61.25 14.5237V46.3447C61.25 51.0988 57.3417 55.0071 52.5 55.0071Z" stroke="#333333" stroke-width="1.5" stroke-miterlimit="10" stroke-linecap="round" stroke-linejoin="round"/>
</svg>
