<svg width="72" height="72" viewBox="0 0 72 72" fill="none" xmlns="http://www.w3.org/2000/svg">
<path d="M42 18.5999V30C33.63 30.15 30.15 33.63 30 42H18.6C9.6 42 6 38.4001 6 29.4001V18.5999C6 9.59985 9.6 6 18.6 6H29.4C38.4 6 42 9.59985 42 18.5999Z" stroke="#333333" stroke-width="1.5" stroke-linecap="round" stroke-linejoin="round"/>
<path d="M20.8777 17.6112C19.2877 16.5312 17.1877 16.5313 15.5977 17.6713" stroke="#333333" stroke-width="1.5" stroke-miterlimit="10" stroke-linecap="round" stroke-linejoin="round"/>
<path d="M32.8777 17.6112C31.2877 16.5312 29.1877 16.5313 27.5977 17.6713" stroke="#333333" stroke-width="1.5" stroke-miterlimit="10" stroke-linecap="round" stroke-linejoin="round"/>
<path d="M24.4823 34.261H17.5223C16.6223 34.261 15.9023 33.5409 15.9023 32.6409C15.9023 28.1709 19.5323 24.541 24.0023 24.541C25.9223 24.541 27.6923 25.2009 29.0723 26.3109" stroke="#333333" stroke-width="1.5" stroke-miterlimit="10" stroke-linecap="round" stroke-linejoin="round"/>
<path d="M66 42.5999V53.4001C66 62.4001 62.4 66 53.4 66H42.6C33.6 66 30 62.4001 30 53.4001V42C30.15 33.63 33.63 30.15 42 30H53.4C62.4 30 66 33.5999 66 42.5999Z" stroke="#333333" stroke-width="1.5" stroke-linecap="round" stroke-linejoin="round"/>
<path d="M44.8777 40.8608C43.2877 41.9408 41.1877 41.9408 39.5977 40.8008" stroke="#333333" stroke-width="1.5" stroke-miterlimit="10" stroke-linecap="round" stroke-linejoin="round"/>
<path d="M56.8777 40.8608C55.2877 41.9408 53.1877 41.9408 51.5977 40.8008" stroke="#333333" stroke-width="1.5" stroke-miterlimit="10" stroke-linecap="round" stroke-linejoin="round"/>
<path d="M41.5223 48.541H54.4823C55.3823 48.541 56.1023 49.2608 56.1023 50.1608C56.1023 54.6308 52.4723 58.261 48.0023 58.261C43.5323 58.261 39.9023 54.6308 39.9023 50.1608C39.9023 49.2608 40.6223 48.541 41.5223 48.541Z" stroke="#333333" stroke-width="1.5" stroke-miterlimit="10" stroke-linecap="round" stroke-linejoin="round"/>
</svg>
