<svg width="72" height="72" viewBox="0 0 72 72" fill="none" xmlns="http://www.w3.org/2000/svg">
<path d="M66.0488 45.002C66.0488 56.612 56.6588 66.002 45.0488 66.002L48.1988 60.752" stroke="#333333" stroke-width="1.5" stroke-linecap="round" stroke-linejoin="round"/>
<path d="M6.03516 27.002C6.03516 15.392 15.4252 6.00195 27.0352 6.00195L23.8851 11.252" stroke="#333333" stroke-width="1.5" stroke-linecap="round" stroke-linejoin="round"/>
<path d="M41.1445 13.3516L53.0845 20.2515L64.9045 13.3816" stroke="#333333" stroke-width="1.5" stroke-linecap="round" stroke-linejoin="round"/>
<path d="M53.0703 32.4627V20.2227" stroke="#333333" stroke-width="1.5" stroke-linecap="round" stroke-linejoin="round"/>
<path d="M50.2481 6.63195L43.0481 10.6218C41.4281 11.5218 40.0781 13.8018 40.0781 15.6618V23.2819C40.0781 25.1419 41.3981 27.4219 43.0481 28.3219L50.2481 32.312C51.7781 33.182 54.2981 33.182 55.8581 32.312L63.0581 28.3219C64.6781 27.4219 66.0281 25.1419 66.0281 23.2819V15.6618C66.0281 13.8018 64.7081 11.5218 63.0581 10.6218L55.8581 6.63195C54.3281 5.79195 51.8081 5.79195 50.2481 6.63195Z" stroke="#333333" stroke-width="1.5" stroke-linecap="round" stroke-linejoin="round"/>
<path d="M7.09766 46.3477L19.0077 53.2476L30.8577 46.3777" stroke="#333333" stroke-width="1.5" stroke-linecap="round" stroke-linejoin="round"/>
<path d="M18.9941 65.4588V53.2188" stroke="#333333" stroke-width="1.5" stroke-linecap="round" stroke-linejoin="round"/>
<path d="M16.2052 39.628L9.00517 43.6179C7.38517 44.5179 6.03516 46.7979 6.03516 48.6579V56.278C6.03516 58.138 7.35517 60.418 9.00517 61.318L16.2052 65.308C17.7352 66.178 20.2551 66.178 21.8151 65.308L29.0152 61.318C30.6352 60.418 31.9851 58.138 31.9851 56.278V48.6579C31.9851 46.7979 30.6652 44.5179 29.0152 43.6179L21.8151 39.628C20.2551 38.788 17.7352 38.788 16.2052 39.628Z" stroke="#333333" stroke-width="1.5" stroke-linecap="round" stroke-linejoin="round"/>
</svg>
