<svg width="72" height="72" viewBox="0 0 72 72" fill="none" xmlns="http://www.w3.org/2000/svg">
<path d="M12.7852 33.0603V47.9703C12.7852 53.4303 12.7852 53.4303 17.9452 56.9103L32.1352 65.1003C34.2652 66.3303 37.7452 66.3303 39.8752 65.1003L54.0652 56.9103C59.2252 53.4303 59.2252 53.4303 59.2252 47.9703V33.0603C59.2252 27.6003 59.2252 27.6003 54.0652 24.1203L39.8752 15.9303C37.7452 14.7003 34.2652 14.7003 32.1352 15.9303L17.9452 24.1203C12.7852 27.6003 12.7852 27.6003 12.7852 33.0603Z" stroke="#333333" stroke-width="1.5" stroke-linecap="round" stroke-linejoin="round"/>
<path d="M52.5 22.89V15C52.5 9 49.5 6 43.5 6H28.5C22.5 6 19.5 9 19.5 15V22.68" stroke="#333333" stroke-width="1.5" stroke-linecap="round" stroke-linejoin="round"/>
<path d="M37.8952 32.9689L39.6052 35.6389C39.8752 36.0589 40.4752 36.4789 40.9252 36.5989L43.9852 37.3789C45.8752 37.8589 46.3852 39.4789 45.1552 40.9789L43.1452 43.4089C42.8452 43.7989 42.6052 44.4889 42.6352 44.9689L42.8152 48.1189C42.9352 50.0689 41.5552 51.0589 39.7552 50.3389L36.8152 49.1689C36.3652 48.9889 35.6152 48.9889 35.1652 49.1689L32.2252 50.3389C30.4252 51.0589 29.0452 50.0389 29.1652 48.1189L29.3452 44.9689C29.3752 44.4889 29.1352 43.7689 28.8352 43.4089L26.8252 40.9789C25.5952 39.4789 26.1052 37.8589 27.9952 37.3789L31.0552 36.5989C31.5352 36.4789 32.1352 36.0289 32.3752 35.6389L34.0852 32.9689C35.1652 31.3489 36.8452 31.3489 37.8952 32.9689Z" stroke="#333333" stroke-width="1.5" stroke-linecap="round" stroke-linejoin="round"/>
</svg>
