<svg width="60" height="60" viewBox="0 0 60 60" fill="none" xmlns="http://www.w3.org/2000/svg">
    <path d="M32.5238 7.30078L47.2738 13.8508C51.5238 15.7258 51.5238 18.8258 47.2738 20.7008L32.5238 27.2508C30.8488 28.0008 28.0988 28.0008 26.4238 27.2508L11.6738 20.7008C7.42383 18.8258 7.42383 15.7258 11.6738 13.8508L26.4238 7.30078C28.0988 6.55078 30.8488 6.55078 32.5238 7.30078Z" stroke="#333333" stroke-width="1.5" stroke-linecap="round" stroke-linejoin="round"/>
    <path d="M7.5 27.5C7.5 29.6 9.075 32.025 11 32.875L27.975 40.425C29.275 41 30.75 41 32.025 40.425L49 32.875C50.925 32.025 52.5 29.6 52.5 27.5" stroke="#333333" stroke-width="1.5" stroke-linecap="round" stroke-linejoin="round"/>
    <path d="M7.5 40C7.5 42.325 8.875 44.425 11 45.375L27.975 52.925C29.275 53.5 30.75 53.5 32.025 52.925L49 45.375C51.125 44.425 52.5 42.325 52.5 40" stroke="#333333" stroke-width="1.5" stroke-linecap="round" stroke-linejoin="round"/>
</svg>
