<svg width="60" height="60" viewBox="0 0 60 60" fill="none" xmlns="http://www.w3.org/2000/svg">
    <path d="M47.5 22.5C47.5 26.125 46.425 29.45 44.575 32.225C41.875 36.225 37.6 39.05 32.625 39.775C31.775 39.925 30.9 40 30 40C29.1 40 28.225 39.925 27.375 39.775C22.4 39.05 18.125 36.225 15.425 32.225C13.575 29.45 12.5 26.125 12.5 22.5C12.5 12.825 20.325 5 30 5C39.675 5 47.5 12.825 47.5 22.5Z" stroke="#333333" stroke-width="1.5" stroke-linecap="round" stroke-linejoin="round"/>
    <path d="M53.1276 46.175L49.0026 47.15C48.0776 47.375 47.3526 48.075 47.1526 49L46.2776 52.675C45.8026 54.675 43.2526 55.275 41.9276 53.7L30.0026 40L18.0776 53.725C16.7526 55.3 14.2026 54.7 13.7276 52.7L12.8526 49.025C12.6276 48.1 11.9026 47.375 11.0026 47.175L6.87764 46.2C4.97764 45.75 4.30264 43.375 5.67764 42L15.4276 32.25C18.1276 36.25 22.4026 39.075 27.3776 39.8C28.2276 39.95 29.1026 40.025 30.0026 40.025C30.9026 40.025 31.7776 39.95 32.6276 39.8C37.6026 39.075 41.8776 36.25 44.5776 32.25L54.3276 42C55.7026 43.35 55.0276 45.725 53.1276 46.175Z" stroke="#333333" stroke-width="1.5" stroke-linecap="round" stroke-linejoin="round"/>
    <path d="M31.4548 14.95L32.9298 17.9C33.1298 18.3 33.6548 18.7 34.1298 18.775L36.8048 19.225C38.5048 19.5 38.9048 20.75 37.6798 21.975L35.6048 24.05C35.2548 24.4 35.0548 25.075 35.1798 25.575L35.7798 28.15C36.2548 30.175 35.1798 30.975 33.3798 29.9L30.8798 28.425C30.4298 28.15 29.6798 28.15 29.2298 28.425L26.7298 29.9C24.9298 30.95 23.8548 30.175 24.3298 28.15L24.9298 25.575C25.0298 25.1 24.8548 24.4 24.5048 24.05L22.4298 21.975C21.2048 20.75 21.6048 19.525 23.3048 19.225L25.9798 18.775C26.4298 18.7 26.9548 18.3 27.1548 17.9L28.6298 14.95C29.3548 13.35 30.6548 13.35 31.4548 14.95Z" stroke="#333333" stroke-width="1.5" stroke-linecap="round" stroke-linejoin="round"/>
</svg>
