<svg width="60" height="60" viewBox="0 0 60 60" fill="none" xmlns="http://www.w3.org/2000/svg">
    <path d="M25.5 19.5C26.8642 13.488 32.2407 9 38.6655 9C46.1213 9 52.1655 15.0442 52.1655 22.5C52.1655 29.4063 46.9795 35.1013 40.2893 35.9033M16.5 15L22.5 9L16.5 3M4.5 21V17C4.5 12.5817 8.08172 9 12.5 9H18.5M43.5 45L37.5 51L43.5 57M55.5 39V43C55.5 47.4183 51.9183 51 47.5 51H41.5M31.5 40.5C31.5 47.9558 25.4558 54 18 54C10.5442 54 4.5 47.9558 4.5 40.5C4.5 33.0442 10.5442 27 18 27C25.4558 27 31.5 33.0442 31.5 40.5Z" stroke="#333333" stroke-width="1.5" stroke-linecap="round" stroke-linejoin="round"/>
</svg>
